<?xml version="1.0" encoding="UTF-8"?>
<!DOCTYPE svg PUBLIC "-//W3C//DTD SVG 1.1//EN" "http://www.w3.org/Graphics/SVG/1.1/DTD/svg11.dtd">
<svg xmlns="http://www.w3.org/2000/svg" version="1.1" width="150px" height="150px" style="shape-rendering:geometricPrecision; text-rendering:geometricPrecision; image-rendering:optimizeQuality; fill-rule:evenodd; clip-rule:evenodd" xmlns:xlink="http://www.w3.org/1999/xlink">
<g><path style="opacity:0.006" fill="#000000" d="M 55.5,-0.5 C 57.5,-0.5 59.5,-0.5 61.5,-0.5C 58.7092,0.718853 55.8759,2.05219 53,3.5C 52.586,3.04265 52.086,2.70931 51.5,2.5C 41.8437,7.32817 32.177,12.1615 22.5,17C 19.5377,19.7815 17.2044,22.9482 15.5,26.5C 12.8644,29.3098 10.3644,32.3098 8,35.5C 4.4223,44.3932 1.58897,53.3932 -0.5,62.5C -0.5,59.1667 -0.5,55.8333 -0.5,52.5C 0.34441,47.281 2.34441,42.1143 5.5,37C 5.16667,36.6667 4.83333,36.3333 4.5,36C 7.43292,30.8244 11.0996,26.1577 15.5,22C 15.1667,21.6667 14.8333,21.3333 14.5,21C 16.5,19.3333 18.5,17.6667 20.5,16C 28.6077,12.7801 36.2743,8.78008 43.5,4C 47.735,2.7885 51.735,1.2885 55.5,-0.5 Z"/></g>
<g><path style="opacity:0.45" fill="#252525" d="M 61.5,-0.5 C 68.8333,-0.5 76.1667,-0.5 83.5,-0.5C 84.9369,2.05862 85.9369,4.55862 86.5,7C 85.255,7.79142 83.9217,8.29142 82.5,8.5C 60.4958,6.83184 41.8291,13.8318 26.5,29.5C 25.3915,28.71 24.0581,28.21 22.5,28C 25.0959,26.2028 24.7626,24.8695 21.5,24C 22.9561,23.5774 23.4561,22.7441 23,21.5C 20.3723,23.1255 18.039,25.1255 16,27.5C 15.6012,27.2716 15.4346,26.9382 15.5,26.5C 17.2044,22.9482 19.5377,19.7815 22.5,17C 32.177,12.1615 41.8437,7.32817 51.5,2.5C 52.086,2.70931 52.586,3.04265 53,3.5C 55.8759,2.05219 58.7092,0.718853 61.5,-0.5 Z"/></g>
<g><path style="opacity:0.006" fill="#000000" d="M 90.5,-0.5 C 92.1667,-0.5 93.8333,-0.5 95.5,-0.5C 99.5699,1.37115 103.57,3.53782 107.5,6C 109.167,6.33333 110.833,6.66667 112.5,7C 117.947,11.5698 122.947,16.5698 127.5,22C 133.336,24.2217 138.003,27.8883 141.5,33C 140.944,33.3826 140.611,33.8826 140.5,34.5C 136.589,29.4439 131.589,25.6106 125.5,23C 120.436,14.9845 113.436,9.65119 104.5,7C 99.7184,4.58381 95.0517,2.08381 90.5,-0.5 Z"/></g>
<g><path style="opacity:0.005" fill="#000000" d="M 130.5,-0.5 C 131.5,-0.5 132.5,-0.5 133.5,-0.5C 135.418,0.868114 137.585,1.86811 140,2.5C 142.854,2.22482 145.687,1.22482 148.5,-0.5C 148.833,-0.5 149.167,-0.5 149.5,-0.5C 149.5,0.166667 149.5,0.833333 149.5,1.5C 142.609,4.71195 136.276,4.04529 130.5,-0.5 Z"/></g>
<g><path style="opacity:0.043" fill="#3c3c3c" d="M 133.5,-0.5 C 138.5,-0.5 143.5,-0.5 148.5,-0.5C 145.687,1.22482 142.854,2.22482 140,2.5C 137.585,1.86811 135.418,0.868114 133.5,-0.5 Z"/></g>
<g><path style="opacity:0.818" fill="#ebebeb" d="M 82.5,8.5 C 112.612,14.1058 131.779,31.7725 140,61.5C 143.93,98.4881 128.763,123.988 94.5,138C 90.0822,138.624 85.7488,139.457 81.5,140.5C 43.8862,141.382 20.0528,123.716 10,87.5C 5.90955,65.289 11.4095,45.9557 26.5,29.5C 41.8291,13.8318 60.4958,6.83184 82.5,8.5 Z"/></g>
<g><path style="opacity:0.82" fill="#232323" d="M 63.5,12.5 C 69.8421,12.3338 76.1754,12.5005 82.5,13C 77.6604,16.0406 76.3271,20.2073 78.5,25.5C 75.8929,26.3184 73.2263,26.8184 70.5,27C 68.6711,27.2735 67.1711,28.1068 66,29.5C 63.3111,41.1425 67.8111,45.9759 79.5,44C 82.7297,41.9274 86.063,40.094 89.5,38.5C 90.5539,38.6799 91.5539,39.0133 92.5,39.5C 93.6578,42.1712 95.4911,44.1712 98,45.5C 100.791,44.5938 103.624,43.9272 106.5,43.5C 105.984,46.8988 105.15,50.2321 104,53.5C 103.196,54.8045 102.029,55.4712 100.5,55.5C 91.8806,53.2935 83.214,51.2935 74.5,49.5C 62.0403,51.4747 56.5403,58.8081 58,71.5C 59.491,79.6576 64.3243,84.491 72.5,86C 75.4262,86.2178 78.2595,86.7178 81,87.5C 81.3333,95.5 81.6667,103.5 82,111.5C 84.4796,116.824 88.6462,119.157 94.5,118.5C 101.569,118.881 107.069,116.215 111,110.5C 114.723,99.0506 116.057,87.3839 115,75.5C 118.723,73.4212 121.556,70.5878 123.5,67C 127.782,66.0349 131.782,66.7016 135.5,69C 137.327,104.976 120.66,127.309 85.5,136C 68.8457,138.442 53.5124,135.109 39.5,126C 38.9781,125.439 38.6448,124.772 38.5,124C 44.5212,113.272 47.6879,101.772 48,89.5C 46.3905,88.8534 44.8905,88.02 43.5,87C 39.0492,86.8702 34.7159,86.2036 30.5,85C 27.462,82.2974 24.7954,79.2974 22.5,76C 19.341,74.4388 16.1743,74.2721 13,75.5C 12.7219,51.8913 22.5552,33.7246 42.5,21C 49.1874,17.0569 56.1874,14.2235 63.5,12.5 Z"/></g>
<g><path style="opacity:0.464" fill="#202020" d="M 26.5,29.5 C 11.4095,45.9557 5.90955,65.289 10,87.5C 20.0528,123.716 43.8862,141.382 81.5,140.5C 81.5774,141.75 82.244,142.583 83.5,143C 80.3323,143.582 79.999,144.582 82.5,146C 82.1667,146.333 81.8333,146.667 81.5,147C 82.825,146.852 83.9916,147.018 85,147.5C 85.3542,145.193 86.3542,144.859 88,146.5C 89.8261,145.99 89.9928,145.156 88.5,144C 90.8483,143.89 92.3483,142.723 93,140.5C 94.1178,142.765 94.9512,145.099 95.5,147.5C 95.5,147.833 95.5,148.167 95.5,148.5C 84.8333,148.5 74.1667,148.5 63.5,148.5C 55.1352,143.991 46.1352,141.158 36.5,140C 32.9644,137.612 29.6311,135.112 26.5,132.5C 22.524,128.533 18.1906,124.867 13.5,121.5C 8.80527,114.093 4.1386,106.759 -0.5,99.5C -0.5,87.1667 -0.5,74.8333 -0.5,62.5C 1.58897,53.3932 4.4223,44.3932 8,35.5C 10.3644,32.3098 12.8644,29.3098 15.5,26.5C 15.4346,26.9382 15.6012,27.2716 16,27.5C 18.039,25.1255 20.3723,23.1255 23,21.5C 23.4561,22.7441 22.9561,23.5774 21.5,24C 24.7626,24.8695 25.0959,26.2028 22.5,28C 24.0581,28.21 25.3915,28.71 26.5,29.5 Z"/></g>
<g><path style="opacity:0.006" fill="#000000" d="M 140.5,34.5 C 141.806,37.3379 142.973,40.3379 144,43.5C 145.076,46.079 146.909,47.7457 149.5,48.5C 149.5,50.1667 149.5,51.8333 149.5,53.5C 144.785,48.5835 141.452,42.7502 139.5,36C 140.056,35.6174 140.389,35.1174 140.5,34.5 Z"/></g>
<g><path style="opacity:0.82" fill="#262626" d="M 87.5,13.5 C 114.587,20.4139 130.754,37.4139 136,64.5C 135.5,64 135,63.5 134.5,63C 127.386,60.7617 122.053,62.7617 118.5,69C 115.28,70.2659 112.947,72.4326 111.5,75.5C 113.323,86.3679 112.49,97.0345 109,107.5C 105.844,112.673 101.177,115.007 95,114.5C 91.7077,114.974 89.0411,113.974 87,111.5C 86.0611,108.236 85.5611,104.903 85.5,101.5C 86.2669,96.173 86.4336,90.8396 86,85.5C 84.8289,84.1068 83.3289,83.2735 81.5,83C 65.5148,82.4894 59.6815,74.656 64,59.5C 65.2598,56.5719 67.4265,54.7386 70.5,54C 79.0239,53.8331 87.3573,55.1664 95.5,58C 102.453,60.4063 106.953,58.2397 109,51.5C 113.205,41.2083 110.039,37.5416 99.5,40.5C 97.7099,39.2137 96.0432,37.7137 94.5,36C 92.9656,35.077 91.299,34.577 89.5,34.5C 85.8856,36.3072 82.2189,38.1405 78.5,40C 76.1667,40.6667 73.8333,40.6667 71.5,40C 70.1336,37.0027 69.467,33.836 69.5,30.5C 74.3509,30.6296 79.0175,29.7962 83.5,28C 84.6678,26.1291 84.1678,24.6291 82,23.5C 81.3333,21.8333 81.3333,20.1667 82,18.5C 83.8119,16.6997 85.6452,15.0331 87.5,13.5 Z"/></g>
<g><path style="opacity:0.82" fill="#212121" d="M 13.5,78.5 C 15.8568,78.3367 18.1902,78.5034 20.5,79C 23.6588,83.5802 27.6588,87.2469 32.5,90C 36.4213,90.203 40.2546,90.703 44,91.5C 43.9522,102.691 40.9522,113.025 35,122.5C 21.657,110.815 14.4903,96.148 13.5,78.5 Z"/></g>
<g><path style="opacity:0.452" fill="#292929" d="M 83.5,-0.5 C 85.8333,-0.5 88.1667,-0.5 90.5,-0.5C 95.0517,2.08381 99.7184,4.58381 104.5,7C 113.436,9.65119 120.436,14.9845 125.5,23C 131.589,25.6106 136.589,29.4439 140.5,34.5C 140.389,35.1174 140.056,35.6174 139.5,36C 141.452,42.7502 144.785,48.5835 149.5,53.5C 149.5,68.8333 149.5,84.1667 149.5,99.5C 147.167,102.167 144.833,104.833 142.5,107.5C 140.181,109.578 138.181,112.078 136.5,115C 135.767,116.766 135.433,118.599 135.5,120.5C 135.5,121.833 134.833,122.5 133.5,122.5C 132.761,122.369 132.094,122.536 131.5,123C 125.059,131.774 117.059,138.774 107.5,144C 103.553,145.484 99.5532,146.65 95.5,147.5C 94.9512,145.099 94.1178,142.765 93,140.5C 92.3483,142.723 90.8483,143.89 88.5,144C 89.9928,145.156 89.8261,145.99 88,146.5C 86.3542,144.859 85.3542,145.193 85,147.5C 83.9916,147.018 82.825,146.852 81.5,147C 81.8333,146.667 82.1667,146.333 82.5,146C 79.999,144.582 80.3323,143.582 83.5,143C 82.244,142.583 81.5774,141.75 81.5,140.5C 85.7488,139.457 90.0822,138.624 94.5,138C 128.763,123.988 143.93,98.4881 140,61.5C 131.779,31.7725 112.612,14.1058 82.5,8.5C 83.9217,8.29142 85.255,7.79142 86.5,7C 85.9369,4.55862 84.9369,2.05862 83.5,-0.5 Z"/></g>
<g><path style="opacity:0.006" fill="#000000" d="M 142.5,107.5 C 140.45,111.106 138.784,114.94 137.5,119C 137.164,120.03 136.497,120.53 135.5,120.5C 135.433,118.599 135.767,116.766 136.5,115C 138.181,112.078 140.181,109.578 142.5,107.5 Z"/></g>
<g><path style="opacity:0.006" fill="#000000" d="M 133.5,122.5 C 128.733,128.442 123.733,134.275 118.5,140C 114.743,141.81 111.076,143.81 107.5,146C 103.689,147.739 99.6891,148.572 95.5,148.5C 95.5,148.167 95.5,147.833 95.5,147.5C 99.5532,146.65 103.553,145.484 107.5,144C 117.059,138.774 125.059,131.774 131.5,123C 132.094,122.536 132.761,122.369 133.5,122.5 Z"/></g>
<g><path style="opacity:0.007" fill="#000000" d="M 26.5,132.5 C 29.6311,135.112 32.9644,137.612 36.5,140C 46.1352,141.158 55.1352,143.991 63.5,148.5C 54.4297,145.648 45.0963,143.481 35.5,142C 31.6198,139.621 28.6198,136.454 26.5,132.5 Z"/></g>
<g><path style="opacity:0.004" fill="#000000" d="M -0.5,147.5 C 0.338246,147.842 0.67158,148.508 0.5,149.5C 0.166667,149.5 -0.166667,149.5 -0.5,149.5C -0.5,148.833 -0.5,148.167 -0.5,147.5 Z"/></g>
<g><path style="opacity:0.004" fill="#000000" d="M 138.5,147.5 C 139.833,148.167 139.833,148.167 138.5,147.5 Z"/></g>
<g><path style="opacity:0.004" fill="#000000" d="M 140.5,147.5 C 141.833,148.167 141.833,148.167 140.5,147.5 Z"/></g>
<g><path style="opacity:0.004" fill="#000000" d="M 142.5,147.5 C 143.833,148.167 143.833,148.167 142.5,147.5 Z"/></g>
</svg>
